<svg xmlns="http://www.w3.org/2000/svg" viewBox="0 0 64 64" role="img" aria-label="TreeCore">
  <rect width="64" height="64" fill="#0f1328"/>
  <rect x="20" y="4" width="8" height="8" fill="#ff6fd8"/>
  <rect x="28" y="12" width="8" height="8" fill="#7c82ff"/>
  <rect x="12" y="12" width="8" height="8" fill="#7c82ff"/>
  <rect x="20" y="12" width="8" height="8" fill="#b7bbff"/>
  <rect x="36" y="12" width="8" height="8" fill="#b7bbff"/>
  <rect x="8" y="20" width="8" height="8" fill="#5fe2ff"/>
  <rect x="16" y="20" width="8" height="8" fill="#7c82ff"/>
  <rect x="24" y="20" width="8" height="8" fill="#5fe2ff"/>
  <rect x="32" y="20" width="8" height="8" fill="#7c82ff"/>
  <rect x="40" y="20" width="8" height="8" fill="#5fe2ff"/>
  <rect x="12" y="28" width="8" height="8" fill="#7c82ff"/>
  <rect x="20" y="28" width="8" height="8" fill="#5fe2ff"/>
  <rect x="28" y="28" width="8" height="8" fill="#f6f7ff"/>
  <rect x="36" y="28" width="8" height="8" fill="#5fe2ff"/>
  <rect x="44" y="28" width="8" height="8" fill="#7c82ff"/>
  <rect x="8" y="36" width="8" height="8" fill="#ff6fd8"/>
  <rect x="16" y="36" width="8" height="8" fill="#7c82ff"/>
  <rect x="24" y="36" width="8" height="8" fill="#5fe2ff"/>
  <rect x="32" y="36" width="8" height="8" fill="#7c82ff"/>
  <rect x="40" y="36" width="8" height="8" fill="#5fe2ff"/>
  <rect x="48" y="36" width="8" height="8" fill="#ff6fd8"/>
  <rect x="12" y="44" width="8" height="8" fill="#7c82ff"/>
  <rect x="20" y="44" width="8" height="8" fill="#b7bbff"/>
  <rect x="28" y="44" width="8" height="8" fill="#5fe2ff"/>
  <rect x="36" y="44" width="8" height="8" fill="#b7bbff"/>
  <rect x="44" y="44" width="8" height="8" fill="#7c82ff"/>
  <rect x="20" y="52" width="8" height="8" fill="#ff6fd8"/>
  <rect x="28" y="52" width="8" height="8" fill="#7c82ff"/>
  <rect x="36" y="52" width="8" height="8" fill="#ff6fd8"/>
</svg>
