<svg xmlns="http://www.w3.org/2000/svg" width="32" height="32" viewBox="0 0 32 32" shape-rendering="crispEdges">
  <rect width="32" height="32" fill="none" fill-opacity="0"/>
  <rect x="4" y="0" width="2" height="2" fill="#6d4b12"/> <rect x="6" y="0" width="2" height="2" fill="#6d4b12"/> <rect x="8" y="0" width="2" height="2" fill="#6d4b12"/> <rect x="10" y="0" width="2" height="2" fill="#b9811f"/> <rect x="12" y="0" width="2" height="2" fill="#b9811f"/> <rect x="14" y="0" width="2" height="2" fill="#b9811f"/> <rect x="2" y="2" width="2" height="2" fill="#6d4b12"/> <rect x="4" y="2" width="2" height="2" fill="#6d4b12"/> <rect x="6" y="2" width="2" height="2" fill="#f7d56b"/> <rect x="8" y="2" width="2" height="2" fill="#f7d56b"/> <rect x="10" y="2" width="2" height="2" fill="#f7d56b"/> <rect x="12" y="2" width="2" height="2" fill="#b9811f"/> <rect x="14" y="2" width="2" height="2" fill="#b9811f"/> <rect x="16" y="2" width="2" height="2" fill="#b9811f"/> <rect x="0" y="4" width="2" height="2" fill="#6d4b12"/> <rect x="2" y="4" width="2" height="2" fill="#6d4b12"/> <rect x="4" y="4" width="2" height="2" fill="#f7d56b"/> <rect x="6" y="4" width="2" height="2" fill="#f7d56b"/> <rect x="8" y="4" width="2" height="2" fill="#f7d56b"/> <rect x="10" y="4" width="2" height="2" fill="#f7d56b"/> <rect x="12" y="4" width="2" height="2" fill="#b9811f"/> <rect x="14" y="4" width="2" height="2" fill="#b9811f"/> <rect x="4" y="6" width="2" height="2" fill="#6d4b12"/> <rect x="6" y="6" width="2" height="2" fill="#6d4b12"/> <rect x="8" y="6" width="2" height="2" fill="#f7d56b"/> <rect x="10" y="6" width="2" height="2" fill="#b9811f"/> <rect x="12" y="6" width="2" height="2" fill="#b9811f"/> <rect x="8" y="8" width="2" height="2" fill="#f7d56b"/> <rect x="10" y="8" width="2" height="2" fill="#b9811f"/> <rect x="6" y="10" width="2" height="2" fill="#f7d56b"/> <rect x="8" y="10" width="2" height="2" fill="#8b6333"/> <rect x="10" y="10" width="2" height="2" fill="#b9811f"/> <rect x="4" y="12" width="2" height="2" fill="#f7d56b"/> <rect x="6" y="12" width="2" height="2" fill="#8b6333"/> <rect x="8" y="12" width="2" height="2" fill="#8b6333"/> <rect x="10" y="12" width="2" height="2" fill="#b9811f"/> <rect x="2" y="14" width="2" height="2" fill="#f7d56b"/> <rect x="4" y="14" width="2" height="2" fill="#8b6333"/> <rect x="6" y="14" width="2" height="2" fill="#8b6333"/> <rect x="8" y="14" width="2" height="2" fill="#8b6333"/> <rect x="10" y="14" width="2" height="2" fill="#b9811f"/> <rect x="0" y="16" width="2" height="2" fill="#f7d56b"/> <rect x="2" y="16" width="2" height="2" fill="#8b6333"/> <rect x="4" y="16" width="2" height="2" fill="#8b6333"/> <rect x="6" y="16" width="2" height="2" fill="#8b6333"/> <rect x="8" y="16" width="2" height="2" fill="#8b6333"/> <rect x="10" y="16" width="2" height="2" fill="#b9811f"/> <rect x="2" y="18" width="2" height="2" fill="#8b6333"/> <rect x="4" y="18" width="2" height="2" fill="#8b6333"/> <rect x="6" y="18" width="2" height="2" fill="#8b6333"/> <rect x="8" y="18" width="2" height="2" fill="#8b6333"/> <rect x="10" y="18" width="2" height="2" fill="#b9811f"/> <rect x="4" y="20" width="2" height="2" fill="#8b6333"/> <rect x="6" y="20" width="2" height="2" fill="#8b6333"/> <rect x="8" y="20" width="2" height="2" fill="#8b6333"/> <rect x="10" y="20" width="2" height="2" fill="#b9811f"/> <rect x="6" y="22" width="2" height="2" fill="#8b6333"/> <rect x="8" y="22" width="2" height="2" fill="#8b6333"/> <rect x="10" y="22" width="2" height="2" fill="#b9811f"/> <rect x="8" y="24" width="2" height="2" fill="#8b6333"/> <rect x="10" y="24" width="2" height="2" fill="#b9811f"/> <rect x="8" y="26" width="2" height="2" fill="#3d2914"/> <rect x="10" y="26" width="2" height="2" fill="#8b6333"/> <rect x="12" y="26" width="2" height="2" fill="#3d2914"/> <rect x="6" y="28" width="2" height="2" fill="#3d2914"/> <rect x="8" y="28" width="2" height="2" fill="#8b6333"/> <rect x="10" y="28" width="2" height="2" fill="#8b6333"/> <rect x="12" y="28" width="2" height="2" fill="#8b6333"/> <rect x="14" y="28" width="2" height="2" fill="#3d2914"/> <rect x="8" y="30" width="2" height="2" fill="#3d2914"/> <rect x="10" y="30" width="2" height="2" fill="#8b6333"/> <rect x="12" y="30" width="2" height="2" fill="#3d2914"/>
</svg>
